 http://www.imdb.com/title/tt0090605/


In this action-packed sequel to Alien, Sigourney Weaver returns as Ripley, the only survivor from mankind's first encounter with the monstrous Alien. Her account of the Alien and the fate of her crew are received with skepticism, until the mysterious disappearance of colonists on LV-426 lead her to join a team of high-tech colonial marines sent in to investigate. Personally supervised by director James Cameron, this special edition includes scenes eliminated prior to the film's 1986 release which broaden the narrative scope and enrich the emotional impact of the film.

Format : MPEG-4
Format profile : Base Media / Version 2
Codec ID : mp42
File size : 999 MiB
Duration : 2h 28mn
Overall bit rate : 943 Kbps
Encoded date : UTC 2009-11-16 11:07:55
Tagged date : UTC 2009-11-16 18:54:10
Writing application : HandBrake 0.9.3 2008112300

Video
ID : 1
Format : AVC
Format/Info : Advanced Video Codec
Format profile : Main@L4.0
Format settings, CABAC : Yes
Format settings, ReFrames : 3 frames
Codec ID : avc1
Codec ID/Info : Advanced Video Coding
Duration : 2h 28mn
Bit rate mode : Variable
Bit rate : 780 Kbps
Width : 714 pixels
Height : 554 pixels
Display aspect ratio : 16:9
Frame rate mode : Variable
Frame rate : 25.000 fps
Minimum frame rate : 12.500 fps
Maximum frame rate : 86.486 fps
Resolution : 24 bits
Colorimetry : 4:2:0
Scan type : Progressive
Bits/(Pixel*Frame) : 0.079
Stream size : 826 MiB (83%)
Writing library : x264 core 65


Audio
ID : 2
Format : AAC
Format/Info : Advanced Audio Codec
Format version : Version 4
Format profile : LC
Format settings, SBR : No
Codec ID : 40
Duration : 2h 28mn
Bit rate mode : Variable
Bit rate : 160 Kbps
Maximum bit rate : 236 Kbps
Channel(s) : 2 channels
Channel positions : L R
Sampling rate : 48.0 KHz
Resolution : 16 bits
Stream size : 169 MiB (17%)
Language : English
Encoded date : UTC 2009-11-16 11:07:55
Tagged date : UTC 2009-11-16 18:54:05 